<svg width="131" height="54" viewBox="0 0 131 54" fill="none" xmlns="http://www.w3.org/2000/svg">
<path d="M29.4082 20.56V18.38H39.8882V20.56H29.4082ZM36.3682 9L43.5682 24H40.7482L34.2082 10H35.2282L28.6882 24H25.8682L33.0682 9H36.3682ZM47.6193 10.22H50.2593V24H47.6193V10.22ZM41.4193 9H56.4593V11.32H41.4193V9ZM61.1029 9V22.82L59.9229 21.68H71.2229V24H58.4629V9H61.1029ZM75.2285 20.56V18.38H85.7085V20.56H75.2285ZM82.1885 9L89.3885 24H86.5685L80.0285 10H81.0485L74.5085 24H71.6885L78.8885 9H82.1885ZM89.5741 19.12H92.2541C92.3341 19.72 92.5808 20.2467 92.9941 20.7C93.4208 21.1533 93.9808 21.5067 94.6741 21.76C95.3675 22 96.1675 22.12 97.0741 22.12C98.4208 22.12 99.4875 21.9133 100.274 21.5C101.061 21.0733 101.454 20.5 101.454 19.78C101.454 19.1933 101.227 18.7533 100.774 18.46C100.321 18.1667 99.5008 17.9467 98.3141 17.8L95.0741 17.38C93.2608 17.14 91.9408 16.6933 91.1141 16.04C90.3008 15.3733 89.8941 14.4333 89.8941 13.22C89.8941 12.3 90.1675 11.5067 90.7141 10.84C91.2741 10.16 92.0608 9.64 93.0741 9.28C94.0875 8.90667 95.2741 8.72 96.6341 8.72C97.9808 8.72 99.1741 8.92 100.214 9.32C101.254 9.72 102.081 10.28 102.694 11C103.321 11.7067 103.661 12.54 103.714 13.5H101.034C100.967 12.9667 100.741 12.5067 100.354 12.12C99.9808 11.7333 99.4741 11.4333 98.8341 11.22C98.1941 10.9933 97.4408 10.88 96.5741 10.88C95.3475 10.88 94.3675 11.08 93.6341 11.48C92.9008 11.88 92.5341 12.4267 92.5341 13.12C92.5341 13.6533 92.7475 14.0667 93.1741 14.36C93.6141 14.64 94.3741 14.8533 95.4541 15L98.7341 15.46C100.081 15.6467 101.141 15.9 101.914 16.22C102.701 16.5267 103.261 16.9467 103.594 17.48C103.927 18 104.094 18.6733 104.094 19.5C104.094 20.46 103.801 21.3 103.214 22.02C102.627 22.74 101.801 23.3 100.734 23.7C99.6808 24.0867 98.4475 24.28 97.0341 24.28C95.5941 24.28 94.3208 24.0667 93.2141 23.64C92.1208 23.2 91.2541 22.5933 90.6141 21.82C89.9741 21.0467 89.6275 20.1467 89.5741 19.12Z" fill="white"/>
<path d="M32.8962 38.0849C32.7628 39.3116 32.3295 40.3982 31.5962 41.3449C30.8762 42.2782 29.9295 43.0049 28.7562 43.5249C27.5828 44.0449 26.2428 44.3049 24.7362 44.3049C23.0562 44.3049 21.5828 43.9782 20.3162 43.3249C19.0495 42.6716 18.0628 41.7649 17.3562 40.6049C16.6495 39.4316 16.2962 38.0716 16.2962 36.5249C16.2962 34.9782 16.6495 33.6249 17.3562 32.4649C18.0628 31.2916 19.0495 30.3782 20.3162 29.7249C21.5828 29.0716 23.0562 28.7449 24.7362 28.7449C26.2428 28.7449 27.5828 29.0049 28.7562 29.5249C29.9295 30.0449 30.8762 30.7716 31.5962 31.7049C32.3295 32.6382 32.7628 33.7249 32.8962 34.9649H30.2362C30.0895 34.1649 29.7695 33.4782 29.2762 32.9049C28.7962 32.3316 28.1695 31.8916 27.3962 31.5849C26.6228 31.2649 25.7295 31.1049 24.7162 31.1049C23.5428 31.1049 22.5228 31.3249 21.6562 31.7649C20.8028 32.2049 20.1428 32.8316 19.6762 33.6449C19.2095 34.4582 18.9762 35.4182 18.9762 36.5249C18.9762 37.6316 19.2095 38.5916 19.6762 39.4049C20.1428 40.2182 20.8028 40.8449 21.6562 41.2849C22.5228 41.7249 23.5428 41.9449 24.7162 41.9449C25.7295 41.9449 26.6228 41.7916 27.3962 41.4849C28.1695 41.1782 28.7962 40.7382 29.2762 40.1649C29.7695 39.5782 30.0895 38.8849 30.2362 38.0849H32.8962ZM35.3184 29.0249H37.9584V44.0249H35.3184V29.0249ZM55.2144 42.4249L54.1344 42.5449V29.0249H56.6944V44.0249H53.3344L42.8144 30.5049L43.8744 30.3849V44.0249H41.3144V29.0249H44.7544L55.2144 42.4249ZM72.0249 35.4249V37.6249H61.5449V35.4249H72.0249ZM63.2849 36.5249L62.2249 43.2249L60.9649 41.7449H72.6049V44.0249H59.5249L60.7249 36.5249L59.5249 29.0249H72.5049V31.3049H60.9649L62.2249 29.8249L63.2849 36.5249ZM95.5374 29.0249V44.0249H93.0174V29.8249L93.8374 29.8649L86.8574 44.0249H84.0374L77.0574 29.8849L77.8774 29.8449V44.0249H75.3574V29.0249H79.3974L86.1174 42.8849H84.7974L91.4974 29.0249H95.5374ZM100.893 40.5849V38.4049H111.373V40.5849H100.893ZM107.853 29.0249L115.053 44.0249H112.233L105.693 30.0249H106.713L100.173 44.0249H97.3526L104.553 29.0249H107.853Z" fill="#FF0000"/>
</svg>
